<mxfile host="app.diagrams.net" modified="2023-10-21T10:42:57.385Z" agent="Mozilla/5.0 (Macintosh; Intel Mac OS X 10_15_7) AppleWebKit/537.36 (KHTML, like Gecko) Chrome/118.0.0.0 Safari/537.36" etag="VAOkBKjso75XRef5xKyd" version="21.8.2" type="device">
  <diagram name="Page-1" id="-_LTY9yeXIAXHKSbd9Yf">
    <mxGraphModel dx="2502" dy="1124" grid="1" gridSize="10" guides="1" tooltips="1" connect="1" arrows="1" fold="1" page="1" pageScale="1" pageWidth="850" pageHeight="1100" math="0" shadow="0">
      <root>
        <mxCell id="0" />
        <mxCell id="1" parent="0" />
        <mxCell id="PR9d76hwL6Sj0DPpV70U-2" value="VPC" style="points=[[0,0],[0.25,0],[0.5,0],[0.75,0],[1,0],[1,0.25],[1,0.5],[1,0.75],[1,1],[0.75,1],[0.5,1],[0.25,1],[0,1],[0,0.75],[0,0.5],[0,0.25]];outlineConnect=0;gradientColor=#b3b3b3;html=1;whiteSpace=wrap;fontSize=12;fontStyle=0;container=1;pointerEvents=0;collapsible=0;recursiveResize=0;shape=mxgraph.aws4.group;grIcon=mxgraph.aws4.group_vpc;strokeColor=#666666;fillColor=#f5f5f5;verticalAlign=top;align=left;spacingLeft=30;dashed=0;" vertex="1" parent="1">
          <mxGeometry x="-30" y="120" width="750" height="1060" as="geometry" />
        </mxCell>
        <mxCell id="PR9d76hwL6Sj0DPpV70U-15" value="" style="edgeStyle=orthogonalEdgeStyle;rounded=0;orthogonalLoop=1;jettySize=auto;html=1;" edge="1" parent="PR9d76hwL6Sj0DPpV70U-2" source="PR9d76hwL6Sj0DPpV70U-7" target="PR9d76hwL6Sj0DPpV70U-14">
          <mxGeometry relative="1" as="geometry" />
        </mxCell>
        <mxCell id="PR9d76hwL6Sj0DPpV70U-7" value="WAF" style="outlineConnect=0;dashed=0;verticalLabelPosition=bottom;verticalAlign=top;align=center;html=1;shape=mxgraph.aws3.emr_cluster;fillColor=#F58534;gradientColor=none;" vertex="1" parent="PR9d76hwL6Sj0DPpV70U-2">
          <mxGeometry x="137" y="30" width="55.5" height="63" as="geometry" />
        </mxCell>
        <mxCell id="PR9d76hwL6Sj0DPpV70U-14" value="Rules" style="rounded=1;whiteSpace=wrap;html=1;fillColor=#d5e8d4;strokeColor=#82b366;" vertex="1" parent="PR9d76hwL6Sj0DPpV70U-2">
          <mxGeometry x="230" y="46.5" width="120" height="30" as="geometry" />
        </mxCell>
        <mxCell id="PR9d76hwL6Sj0DPpV70U-30" value="" style="group" vertex="1" connectable="0" parent="1">
          <mxGeometry x="10" y="310" width="840" height="440" as="geometry" />
        </mxCell>
        <mxCell id="PR9d76hwL6Sj0DPpV70U-66" value="" style="group" vertex="1" connectable="0" parent="PR9d76hwL6Sj0DPpV70U-30">
          <mxGeometry y="-70" width="670" height="440" as="geometry" />
        </mxCell>
        <mxCell id="PR9d76hwL6Sj0DPpV70U-28" value="" style="rounded=1;whiteSpace=wrap;html=1;fillColor=#f5f5f5;gradientColor=#b3b3b3;strokeColor=#666666;" vertex="1" parent="PR9d76hwL6Sj0DPpV70U-66">
          <mxGeometry width="670" height="440" as="geometry" />
        </mxCell>
        <mxCell id="PR9d76hwL6Sj0DPpV70U-29" value="Public subnet" style="text;html=1;align=center;verticalAlign=middle;resizable=0;points=[];autosize=1;strokeColor=none;fillColor=none;" vertex="1" parent="PR9d76hwL6Sj0DPpV70U-66">
          <mxGeometry x="136.2162162162162" y="5.116279069767442" width="100" height="30" as="geometry" />
        </mxCell>
        <mxCell id="PR9d76hwL6Sj0DPpV70U-35" value="" style="group" vertex="1" connectable="0" parent="PR9d76hwL6Sj0DPpV70U-66">
          <mxGeometry x="340" y="35.120000000000005" width="290" height="370" as="geometry" />
        </mxCell>
        <mxCell id="PR9d76hwL6Sj0DPpV70U-36" value="" style="rounded=1;whiteSpace=wrap;html=1;dashed=1;fontSize=14;fontColor=#000000;" vertex="1" parent="PR9d76hwL6Sj0DPpV70U-35">
          <mxGeometry width="290" height="370" as="geometry" />
        </mxCell>
        <mxCell id="PR9d76hwL6Sj0DPpV70U-37" value="Zone B" style="text;html=1;align=center;verticalAlign=middle;resizable=0;points=[];autosize=1;strokeColor=none;fillColor=none;" vertex="1" parent="PR9d76hwL6Sj0DPpV70U-35">
          <mxGeometry x="115" y="10" width="60" height="30" as="geometry" />
        </mxCell>
        <mxCell id="PR9d76hwL6Sj0DPpV70U-38" value="Target Group" style="rounded=1;whiteSpace=wrap;html=1;fillColor=#dae8fc;strokeColor=#6c8ebf;" vertex="1" parent="PR9d76hwL6Sj0DPpV70U-35">
          <mxGeometry x="80" y="50" width="120" height="60" as="geometry" />
        </mxCell>
        <mxCell id="PR9d76hwL6Sj0DPpV70U-39" value="ASG with Templates" style="rounded=1;whiteSpace=wrap;html=1;" vertex="1" parent="PR9d76hwL6Sj0DPpV70U-35">
          <mxGeometry x="85" y="150" width="120" height="60" as="geometry" />
        </mxCell>
        <mxCell id="PR9d76hwL6Sj0DPpV70U-40" value="EC2" style="outlineConnect=0;dashed=0;verticalLabelPosition=bottom;verticalAlign=top;align=center;html=1;shape=mxgraph.aws3.ec2;fillColor=#F58534;gradientColor=none;" vertex="1" parent="PR9d76hwL6Sj0DPpV70U-35">
          <mxGeometry x="116.75" y="230" width="76.5" height="93" as="geometry" />
        </mxCell>
        <mxCell id="PR9d76hwL6Sj0DPpV70U-12" style="edgeStyle=orthogonalEdgeStyle;rounded=0;orthogonalLoop=1;jettySize=auto;html=1;" edge="1" parent="1" source="PR9d76hwL6Sj0DPpV70U-1" target="PR9d76hwL6Sj0DPpV70U-11">
          <mxGeometry relative="1" as="geometry" />
        </mxCell>
        <mxCell id="PR9d76hwL6Sj0DPpV70U-1" value="" style="image;aspect=fixed;perimeter=ellipsePerimeter;html=1;align=center;shadow=0;dashed=0;spacingTop=3;image=img/lib/active_directory/internet_globe.svg;" vertex="1" parent="1">
          <mxGeometry x="460" y="27.75" width="50" height="50" as="geometry" />
        </mxCell>
        <mxCell id="PR9d76hwL6Sj0DPpV70U-8" style="edgeStyle=orthogonalEdgeStyle;rounded=0;orthogonalLoop=1;jettySize=auto;html=1;" edge="1" parent="1" source="PR9d76hwL6Sj0DPpV70U-3" target="PR9d76hwL6Sj0DPpV70U-7">
          <mxGeometry relative="1" as="geometry" />
        </mxCell>
        <mxCell id="PR9d76hwL6Sj0DPpV70U-3" value="ALB" style="outlineConnect=0;dashed=0;verticalLabelPosition=bottom;verticalAlign=top;align=center;html=1;shape=mxgraph.aws3.application_load_balancer;fillColor=#F58534;gradientColor=none;" vertex="1" parent="1">
          <mxGeometry x="170" y="10" width="69" height="72" as="geometry" />
        </mxCell>
        <mxCell id="PR9d76hwL6Sj0DPpV70U-13" style="edgeStyle=orthogonalEdgeStyle;rounded=0;orthogonalLoop=1;jettySize=auto;html=1;" edge="1" parent="1" source="PR9d76hwL6Sj0DPpV70U-11">
          <mxGeometry relative="1" as="geometry">
            <mxPoint x="240" y="52.75" as="targetPoint" />
          </mxGeometry>
        </mxCell>
        <mxCell id="PR9d76hwL6Sj0DPpV70U-11" value="R53" style="outlineConnect=0;dashed=0;verticalLabelPosition=bottom;verticalAlign=top;align=center;html=1;shape=mxgraph.aws3.route_53;fillColor=#F58536;gradientColor=none;" vertex="1" parent="1">
          <mxGeometry x="310" y="10" width="70.5" height="85.5" as="geometry" />
        </mxCell>
        <mxCell id="PR9d76hwL6Sj0DPpV70U-31" value="" style="group" vertex="1" connectable="0" parent="1">
          <mxGeometry x="10.5" y="720" width="669.5" height="440" as="geometry" />
        </mxCell>
        <mxCell id="PR9d76hwL6Sj0DPpV70U-32" value="" style="rounded=1;whiteSpace=wrap;html=1;fillColor=#f5f5f5;gradientColor=#b3b3b3;strokeColor=#666666;" vertex="1" parent="PR9d76hwL6Sj0DPpV70U-31">
          <mxGeometry width="669.5" height="440" as="geometry" />
        </mxCell>
        <mxCell id="PR9d76hwL6Sj0DPpV70U-33" value="Private subnet" style="text;html=1;align=center;verticalAlign=middle;resizable=0;points=[];autosize=1;strokeColor=none;fillColor=none;" vertex="1" parent="PR9d76hwL6Sj0DPpV70U-31">
          <mxGeometry x="108.56756756756756" y="4.3023255813953485" width="100" height="30" as="geometry" />
        </mxCell>
        <mxCell id="PR9d76hwL6Sj0DPpV70U-47" value="" style="group" vertex="1" connectable="0" parent="PR9d76hwL6Sj0DPpV70U-31">
          <mxGeometry x="29.5" y="40" width="290" height="370" as="geometry" />
        </mxCell>
        <mxCell id="PR9d76hwL6Sj0DPpV70U-42" value="" style="rounded=1;whiteSpace=wrap;html=1;dashed=1;fontSize=14;fontColor=#000000;container=0;" vertex="1" parent="PR9d76hwL6Sj0DPpV70U-47">
          <mxGeometry width="290" height="370" as="geometry" />
        </mxCell>
        <mxCell id="PR9d76hwL6Sj0DPpV70U-43" value="Zone A" style="text;html=1;align=center;verticalAlign=middle;resizable=0;points=[];autosize=1;strokeColor=none;fillColor=none;" vertex="1" parent="PR9d76hwL6Sj0DPpV70U-47">
          <mxGeometry x="115" y="10" width="60" height="30" as="geometry" />
        </mxCell>
        <mxCell id="PR9d76hwL6Sj0DPpV70U-25" value="EFS" style="outlineConnect=0;dashed=0;verticalLabelPosition=bottom;verticalAlign=top;align=center;html=1;shape=mxgraph.aws3.efs;fillColor=#E05243;gradientColor=none;" vertex="1" parent="PR9d76hwL6Sj0DPpV70U-47">
          <mxGeometry x="106.75" y="50" width="76.5" height="93" as="geometry" />
        </mxCell>
        <mxCell id="PR9d76hwL6Sj0DPpV70U-6" value="RDS" style="outlineConnect=0;dashed=0;verticalLabelPosition=bottom;verticalAlign=top;align=center;html=1;shape=mxgraph.aws3.rds;fillColor=#2E73B8;gradientColor=none;" vertex="1" parent="PR9d76hwL6Sj0DPpV70U-47">
          <mxGeometry x="109" y="200" width="72" height="81" as="geometry" />
        </mxCell>
        <mxCell id="PR9d76hwL6Sj0DPpV70U-48" value="" style="group" vertex="1" connectable="0" parent="PR9d76hwL6Sj0DPpV70U-31">
          <mxGeometry x="349.5" y="40" width="290" height="370" as="geometry" />
        </mxCell>
        <mxCell id="PR9d76hwL6Sj0DPpV70U-49" value="" style="rounded=1;whiteSpace=wrap;html=1;dashed=1;fontSize=14;fontColor=#000000;container=0;" vertex="1" parent="PR9d76hwL6Sj0DPpV70U-48">
          <mxGeometry width="290" height="370" as="geometry" />
        </mxCell>
        <mxCell id="PR9d76hwL6Sj0DPpV70U-50" value="Zone B" style="text;html=1;align=center;verticalAlign=middle;resizable=0;points=[];autosize=1;strokeColor=none;fillColor=none;" vertex="1" parent="PR9d76hwL6Sj0DPpV70U-48">
          <mxGeometry x="115" y="10" width="60" height="30" as="geometry" />
        </mxCell>
        <mxCell id="PR9d76hwL6Sj0DPpV70U-51" value="EFS" style="outlineConnect=0;dashed=0;verticalLabelPosition=bottom;verticalAlign=top;align=center;html=1;shape=mxgraph.aws3.efs;fillColor=#E05243;gradientColor=none;" vertex="1" parent="PR9d76hwL6Sj0DPpV70U-48">
          <mxGeometry x="106.75" y="50" width="76.5" height="93" as="geometry" />
        </mxCell>
        <mxCell id="PR9d76hwL6Sj0DPpV70U-52" value="RDS" style="outlineConnect=0;dashed=0;verticalLabelPosition=bottom;verticalAlign=top;align=center;html=1;shape=mxgraph.aws3.rds;fillColor=#2E73B8;gradientColor=none;" vertex="1" parent="PR9d76hwL6Sj0DPpV70U-48">
          <mxGeometry x="109" y="210" width="72" height="81" as="geometry" />
        </mxCell>
        <mxCell id="PR9d76hwL6Sj0DPpV70U-34" value="" style="group" vertex="1" connectable="0" parent="1">
          <mxGeometry x="40" y="280" width="290" height="370" as="geometry" />
        </mxCell>
        <mxCell id="PR9d76hwL6Sj0DPpV70U-16" value="" style="rounded=1;whiteSpace=wrap;html=1;dashed=1;fontSize=14;fontColor=#000000;" vertex="1" parent="PR9d76hwL6Sj0DPpV70U-34">
          <mxGeometry width="290" height="370" as="geometry" />
        </mxCell>
        <mxCell id="PR9d76hwL6Sj0DPpV70U-17" value="Zone A" style="text;html=1;align=center;verticalAlign=middle;resizable=0;points=[];autosize=1;strokeColor=none;fillColor=none;" vertex="1" parent="PR9d76hwL6Sj0DPpV70U-34">
          <mxGeometry x="115" y="10" width="60" height="30" as="geometry" />
        </mxCell>
        <mxCell id="PR9d76hwL6Sj0DPpV70U-21" value="Target Group" style="rounded=1;whiteSpace=wrap;html=1;fillColor=#dae8fc;strokeColor=#6c8ebf;" vertex="1" parent="PR9d76hwL6Sj0DPpV70U-34">
          <mxGeometry x="80" y="50" width="120" height="60" as="geometry" />
        </mxCell>
        <mxCell id="PR9d76hwL6Sj0DPpV70U-23" value="ASG with Templates" style="rounded=1;whiteSpace=wrap;html=1;" vertex="1" parent="PR9d76hwL6Sj0DPpV70U-34">
          <mxGeometry x="85" y="150" width="120" height="60" as="geometry" />
        </mxCell>
        <mxCell id="PR9d76hwL6Sj0DPpV70U-24" value="EC2" style="outlineConnect=0;dashed=0;verticalLabelPosition=bottom;verticalAlign=top;align=center;html=1;shape=mxgraph.aws3.ec2;fillColor=#F58534;gradientColor=none;" vertex="1" parent="PR9d76hwL6Sj0DPpV70U-34">
          <mxGeometry x="106.75" y="230" width="76.5" height="93" as="geometry" />
        </mxCell>
        <mxCell id="PR9d76hwL6Sj0DPpV70U-54" style="edgeStyle=orthogonalEdgeStyle;rounded=0;orthogonalLoop=1;jettySize=auto;html=1;" edge="1" parent="1" source="PR9d76hwL6Sj0DPpV70U-24" target="PR9d76hwL6Sj0DPpV70U-25">
          <mxGeometry relative="1" as="geometry" />
        </mxCell>
        <mxCell id="PR9d76hwL6Sj0DPpV70U-55" style="edgeStyle=orthogonalEdgeStyle;rounded=0;orthogonalLoop=1;jettySize=auto;html=1;" edge="1" parent="1" source="PR9d76hwL6Sj0DPpV70U-24" target="PR9d76hwL6Sj0DPpV70U-6">
          <mxGeometry relative="1" as="geometry" />
        </mxCell>
        <mxCell id="PR9d76hwL6Sj0DPpV70U-65" style="edgeStyle=orthogonalEdgeStyle;rounded=0;orthogonalLoop=1;jettySize=auto;html=1;" edge="1" parent="1" source="PR9d76hwL6Sj0DPpV70U-40" target="PR9d76hwL6Sj0DPpV70U-52">
          <mxGeometry relative="1" as="geometry" />
        </mxCell>
        <mxCell id="PR9d76hwL6Sj0DPpV70U-69" style="edgeStyle=orthogonalEdgeStyle;rounded=0;orthogonalLoop=1;jettySize=auto;html=1;exitX=0.25;exitY=1;exitDx=0;exitDy=0;entryX=0.75;entryY=0;entryDx=0;entryDy=0;" edge="1" parent="1" source="PR9d76hwL6Sj0DPpV70U-14" target="PR9d76hwL6Sj0DPpV70U-16">
          <mxGeometry relative="1" as="geometry" />
        </mxCell>
        <mxCell id="PR9d76hwL6Sj0DPpV70U-70" style="edgeStyle=orthogonalEdgeStyle;rounded=0;orthogonalLoop=1;jettySize=auto;html=1;exitX=0.75;exitY=1;exitDx=0;exitDy=0;entryX=0.25;entryY=0;entryDx=0;entryDy=0;" edge="1" parent="1" source="PR9d76hwL6Sj0DPpV70U-14" target="PR9d76hwL6Sj0DPpV70U-36">
          <mxGeometry relative="1" as="geometry" />
        </mxCell>
      </root>
    </mxGraphModel>
  </diagram>
</mxfile>
